<svg width="310" height="445" viewBox="0 0 310 445" fill="none" xmlns="http://www.w3.org/2000/svg">
<g clip-path="url(#clip0_16:257)">
<path d="M310 340.336H0V340.556H310V340.336Z" fill="#EBEBEB"/>
<path d="M278.938 354.656H258.404V354.878H278.938V354.656Z" fill="#EBEBEB"/>
<path d="M205.356 357.077H199.969V357.298H205.356V357.077Z" fill="#EBEBEB"/>
<path d="M257.784 346.397H245.886V346.618H257.784V346.397Z" fill="#EBEBEB"/>
<path d="M59.303 347.892H32.5251V348.114H59.303V347.892Z" fill="#EBEBEB"/>
<path d="M68.7518 347.892H64.8271V348.114H68.7518V347.892Z" fill="#EBEBEB"/>
<path d="M139.593 351.648H81.5115V351.87H139.593V351.648Z" fill="#EBEBEB"/>
<path d="M146.94 300.642H27.2242C26.2863 300.64 25.3875 300.103 24.7249 299.15C24.0623 298.198 23.6902 296.906 23.6902 295.56V53.9874C23.6983 52.6488 24.0741 51.369 24.7358 50.4258C25.3975 49.4826 26.2917 48.9522 27.2242 48.95H146.94C147.879 48.95 148.779 49.4854 149.443 50.4384C150.107 51.3914 150.48 52.684 150.48 54.0319V295.56C150.48 296.908 150.107 298.2 149.443 299.154C148.779 300.107 147.879 300.642 146.94 300.642V300.642ZM27.2242 49.128C26.3274 49.1303 25.468 49.6433 24.8345 50.5544C24.201 51.4654 23.8452 52.7001 23.8452 53.9874V295.56C23.8452 296.847 24.201 298.082 24.8345 298.993C25.468 299.904 26.3274 300.417 27.2242 300.419H146.94C147.837 300.417 148.697 299.904 149.332 298.994C149.966 298.083 150.324 296.848 150.325 295.56V53.9874C150.324 52.6993 149.966 51.4646 149.332 50.5538C148.697 49.643 147.837 49.1303 146.94 49.128H27.2242Z" fill="#EBEBEB"/>
<path d="M281.052 300.642H161.33C160.392 300.64 159.492 300.103 158.829 299.151C158.165 298.198 157.792 296.907 157.79 295.56V53.9874C157.8 52.648 158.177 51.3681 158.84 50.4252C159.502 49.4823 160.397 48.9522 161.33 48.95H281.052C281.984 48.9546 282.876 49.486 283.537 50.4289C284.197 51.3718 284.572 52.6504 284.58 53.9874V295.56C284.58 296.905 284.209 298.195 283.548 299.147C282.886 300.1 281.989 300.637 281.052 300.642V300.642ZM161.33 49.128C160.433 49.1303 159.573 49.643 158.938 50.5538C158.304 51.4646 157.947 52.6993 157.945 53.9874V295.56C157.947 296.848 158.304 298.083 158.938 298.994C159.573 299.904 160.433 300.417 161.33 300.419H281.052C281.95 300.417 282.81 299.904 283.444 298.994C284.079 298.083 284.436 296.848 284.437 295.56V53.9874C284.436 52.6993 284.079 51.4646 283.444 50.5538C282.81 49.643 281.95 49.1303 281.052 49.128H161.33Z" fill="#EBEBEB"/>
<path d="M167.871 339.375H251.757L251.757 162.817L167.871 162.817V339.375Z" fill="#F0F0F0"/>
<path d="M170.835 200.989H248.794V168.379H170.835V200.989Z" fill="#E0E0E0"/>
<path d="M244.367 200.989H248.794V173.657H244.367V200.989Z" fill="#EBEBEB"/>
<path d="M222.952 200.989H227.379V173.657H222.952V200.989Z" fill="#EBEBEB"/>
<path d="M195.412 199.899L199.775 200.979L203.009 174.044L198.646 172.964L195.412 199.899Z" fill="#EBEBEB"/>
<path d="M238.88 200.989H243.307V177.261H238.88V200.989Z" fill="#EBEBEB"/>
<path d="M228.699 200.989H233.126V177.261H228.699V200.989Z" fill="#EBEBEB"/>
<path d="M203.007 200.989H207.433V177.261H203.007V200.989Z" fill="#EBEBEB"/>
<path d="M213.559 199.6L217.881 200.979L221.467 177.817L217.146 176.438L213.559 199.6Z" fill="#EBEBEB"/>
<path d="M235.048 200.989H237.262V172.304H235.048V200.989Z" fill="#EBEBEB"/>
<path d="M208.711 200.989H210.924V172.304H208.711V200.989Z" fill="#EBEBEB"/>
<path d="M248.794 206.151H170.835V238.76H248.794V206.151Z" fill="#E0E0E0"/>
<path d="M175.261 211.428H170.835V238.76H175.261V211.428Z" fill="#EBEBEB"/>
<path d="M196.676 211.428H192.25V238.76H196.676V211.428Z" fill="#EBEBEB"/>
<path d="M220.993 210.731L216.63 211.81L219.865 238.745L224.227 237.665L220.993 210.731Z" fill="#EBEBEB"/>
<path d="M180.749 215.033H176.322V238.76H180.749V215.033Z" fill="#EBEBEB"/>
<path d="M190.929 215.033H186.502V238.76H190.929V215.033Z" fill="#EBEBEB"/>
<path d="M216.622 215.033H212.195V238.76H216.622V215.033Z" fill="#EBEBEB"/>
<path d="M202.503 214.2L198.182 215.578L201.768 238.741L206.089 237.362L202.503 214.2Z" fill="#EBEBEB"/>
<path d="M184.58 210.076H182.367V238.76H184.58V210.076Z" fill="#EBEBEB"/>
<path d="M210.918 210.076H208.704V238.76H210.918V210.076Z" fill="#EBEBEB"/>
<path d="M244.367 238.76H248.794V211.428H244.367V238.76Z" fill="#EBEBEB"/>
<path d="M238.88 238.76H243.307V215.033H238.88V238.76Z" fill="#EBEBEB"/>
<path d="M228.699 238.76H233.126V215.033H228.699V238.76Z" fill="#EBEBEB"/>
<path d="M235.048 238.76H237.262V210.076H235.048V238.76Z" fill="#EBEBEB"/>
<path d="M170.835 276.532H248.794V243.922H170.835V276.532Z" fill="#E0E0E0"/>
<path d="M199.621 276.532H204.048V249.2H199.621V276.532Z" fill="#EBEBEB"/>
<path d="M172.082 275.438L176.445 276.518L179.679 249.583L175.317 248.504L172.082 275.438Z" fill="#EBEBEB"/>
<path d="M215.549 276.532H219.976V252.804H215.549V276.532Z" fill="#EBEBEB"/>
<path d="M205.369 276.532H209.796V252.804H205.369V276.532Z" fill="#EBEBEB"/>
<path d="M179.676 276.532H184.103V252.804H179.676V276.532Z" fill="#EBEBEB"/>
<path d="M190.228 275.139L194.549 276.518L198.135 253.356L193.814 251.977L190.228 275.139Z" fill="#EBEBEB"/>
<path d="M211.718 276.532H213.931V247.847H211.718V276.532Z" fill="#EBEBEB"/>
<path d="M185.38 276.532H187.594V247.847H185.38V276.532Z" fill="#EBEBEB"/>
<path d="M223.036 275.44L227.399 276.52L230.633 249.585L226.271 248.506L223.036 275.44Z" fill="#EBEBEB"/>
<path d="M230.628 276.532H235.054V252.804H230.628V276.532Z" fill="#EBEBEB"/>
<path d="M241.184 275.142L245.505 276.521L249.091 253.358L244.77 251.98L241.184 275.142Z" fill="#EBEBEB"/>
<path d="M236.325 276.532H238.539V247.847H236.325V276.532Z" fill="#EBEBEB"/>
<path d="M266.228 162.825H251.757V339.838H266.228V162.825Z" fill="#E0E0E0"/>
<path d="M64.7403 124.814C64.7403 124.814 64.0149 117.943 67.5055 113.529C70.9961 109.114 70.6923 106.498 69.6941 106.159C68.6959 105.821 67.7783 110.227 66.2407 111.437C66.2407 111.437 66.1911 105.154 67.7535 102.84C69.3159 100.526 70.1281 94.5626 68.6463 94.4558C67.1645 94.349 67.0095 98.0158 66.6995 100.579C66.3895 103.142 64.7403 106.809 64.7403 106.809C64.7403 106.809 64.4179 101.184 63.4073 98.8702C62.3967 96.5562 65.0875 91.2607 64.0273 88.9467C62.9671 86.6327 61.1505 91.0471 61.2993 96.0044C61.4481 100.962 63.7793 106.257 63.2213 111.437C63.2213 111.437 62.2045 107.797 61.2931 107.468C60.3817 107.138 59.4331 104.726 58.8131 103.836C58.1931 102.946 57.4305 106.035 58.8131 108.901C60.1957 111.766 63.7297 119.429 63.1903 125.632L64.7403 124.814Z" fill="#E6E6E6"/>
<path d="M66.8298 121.69L67.9706 131.996C68.0541 132.744 68.0234 133.509 67.8808 134.238C67.7381 134.968 67.4868 135.644 67.1443 136.22C66.8018 136.796 66.3762 137.259 65.8969 137.576C65.4177 137.893 64.8961 138.057 64.3684 138.057H63.1284C62.6002 138.059 62.0779 137.896 61.5979 137.579C61.1179 137.263 60.6915 136.8 60.3483 136.224C60.0051 135.647 59.7533 134.97 59.6103 134.24C59.4673 133.511 59.4365 132.745 59.52 131.996L60.6608 121.69H66.8298Z" fill="#E6E6E6"/>
<path d="M49.5193 140.219L130.392 140.219V134.256H49.5193V140.219Z" fill="#E0E0E0"/>
<path d="M123.107 134.257H126.672V112.274H123.107V134.257Z" fill="#EBEBEB"/>
<path d="M105.884 134.257H109.449V112.274H105.884V134.257Z" fill="#EBEBEB"/>
<path d="M83.7187 133.387L87.2319 134.257L89.8333 112.593L86.3201 111.724L83.7187 133.387Z" fill="#EBEBEB"/>
<path d="M118.693 134.257H122.258V115.166H118.693V134.257Z" fill="#EBEBEB"/>
<path d="M110.503 134.257H114.068V115.166H110.503V134.257Z" fill="#EBEBEB"/>
<path d="M89.8317 134.257H93.3967V115.166H89.8317V134.257Z" fill="#EBEBEB"/>
<path d="M98.3202 133.136L101.8 134.247L104.686 115.611L101.205 114.5L98.3202 133.136Z" fill="#EBEBEB"/>
<path d="M115.618 134.248H117.397V111.17H115.618V134.248Z" fill="#EBEBEB"/>
<path d="M94.426 134.248H96.2053V111.17H94.426V134.248Z" fill="#EBEBEB"/>
<path d="M130.398 178.783H49.5256V184.746H130.398V178.783Z" fill="#E0E0E0"/>
<path d="M56.8106 156.8H53.2456V178.783H56.8106V156.8Z" fill="#EBEBEB"/>
<path d="M74.0403 156.8H70.4753V178.783H74.0403V156.8Z" fill="#EBEBEB"/>
<path d="M93.6008 156.246L90.0876 157.116L92.689 178.779L96.2021 177.91L93.6008 156.246Z" fill="#EBEBEB"/>
<path d="M61.2249 159.693H57.6599V178.783H61.2249V159.693Z" fill="#EBEBEB"/>
<path d="M69.4151 159.693H65.8501V178.783H69.4151V159.693Z" fill="#EBEBEB"/>
<path d="M90.086 159.693H86.521V178.783H90.086V159.693Z" fill="#EBEBEB"/>
<path d="M78.7252 159.025L75.2451 160.136L78.1304 178.772L81.6105 177.661L78.7252 159.025Z" fill="#EBEBEB"/>
<path d="M64.3001 155.706H62.5208V178.783H64.3001V155.706Z" fill="#EBEBEB"/>
<path d="M85.4918 155.706H83.7124V178.783H85.4918V155.706Z" fill="#EBEBEB"/>
<path d="M122.636 161.384H105.276V178.587H122.636V161.384Z" fill="#EBEBEB"/>
<path d="M214.315 124.653C221.003 124.653 226.424 116.871 226.424 107.272C226.424 97.6719 221.003 89.8899 214.315 89.8899C207.628 89.8899 202.207 97.6719 202.207 107.272C202.207 116.871 207.628 124.653 214.315 124.653Z" fill="#E0E0E0"/>
<path d="M214.315 122.055C220.003 122.055 224.614 115.436 224.614 107.272C224.614 99.1073 220.003 92.4888 214.315 92.4888C208.628 92.4888 204.017 99.1073 204.017 107.272C204.017 115.436 208.628 122.055 214.315 122.055Z" fill="#F0F0F0"/>
<path d="M213.832 97.1345V107.467L209.058 103.587" fill="#F0F0F0"/>
<path d="M213.832 108.358C213.725 108.355 213.621 108.315 213.528 108.242L208.754 104.361C208.611 104.246 208.506 104.053 208.462 103.826C208.418 103.599 208.438 103.356 208.518 103.151C208.558 103.048 208.612 102.958 208.677 102.885C208.741 102.813 208.815 102.759 208.894 102.728C208.973 102.696 209.055 102.687 209.137 102.702C209.218 102.717 209.297 102.754 209.368 102.813L213.212 105.937V97.1346C213.212 96.8986 213.277 96.6722 213.393 96.5053C213.51 96.3384 213.667 96.2446 213.832 96.2446C213.996 96.2446 214.154 96.3384 214.27 96.5053C214.386 96.6722 214.452 96.8986 214.452 97.1346V107.468C214.452 107.704 214.386 107.93 214.27 108.097C214.154 108.264 213.996 108.358 213.832 108.358V108.358Z" fill="#E0E0E0"/>
<path d="M149.609 380.528C213.283 380.528 264.902 376.018 264.902 370.454C264.902 364.89 213.283 360.379 149.609 360.379C85.934 360.379 34.3154 364.89 34.3154 370.454C34.3154 376.018 85.934 380.528 149.609 380.528Z" fill="#F5F5F5"/>
<path d="M103.055 247.838C102.972 248.096 102.936 248.381 102.951 248.666C102.966 248.951 103.031 249.225 103.14 249.459C103.249 249.694 103.397 249.881 103.57 250.001C103.744 250.121 103.935 250.17 104.125 250.144H132.287C132.755 250.11 133.207 249.874 133.587 249.465C133.968 249.056 134.262 248.491 134.433 247.838L140.38 222.117C140.439 221.878 140.469 221.625 140.469 221.37C140.468 221.15 140.436 220.933 140.376 220.733C140.316 220.533 140.229 220.354 140.119 220.207C140.01 220.06 139.882 219.95 139.742 219.882C139.603 219.814 139.455 219.79 139.309 219.812H111.165C110.697 219.846 110.246 220.082 109.865 220.491C109.484 220.9 109.19 221.465 109.019 222.117L103.055 247.838Z" fill="#263238"/>
<path d="M132.501 248.853C132.731 248.837 132.952 248.722 133.139 248.521C133.326 248.321 133.47 248.043 133.554 247.723L139.5 222.002C139.525 221.899 139.537 221.791 139.536 221.682C139.536 221.326 139.363 221.103 139.09 221.103H110.958C110.728 221.119 110.506 221.234 110.319 221.435C110.133 221.635 109.989 221.913 109.905 222.233L103.959 247.954C103.928 248.058 103.915 248.171 103.92 248.285C103.925 248.398 103.949 248.507 103.988 248.604C104.033 248.69 104.091 248.758 104.158 248.801C104.224 248.845 104.297 248.862 104.369 248.853H132.501Z" fill="#92E3A9"/>
<path opacity="0.8" d="M132.501 248.853C132.731 248.837 132.952 248.722 133.139 248.521C133.326 248.321 133.47 248.043 133.554 247.723L139.5 222.002C139.525 221.899 139.537 221.791 139.536 221.682C139.536 221.326 139.363 221.103 139.09 221.103H110.958C110.728 221.119 110.506 221.234 110.319 221.435C110.133 221.635 109.989 221.913 109.905 222.233L103.959 247.954C103.928 248.058 103.915 248.171 103.92 248.285C103.925 248.398 103.949 248.507 103.988 248.604C104.033 248.69 104.091 248.758 104.158 248.801C104.224 248.845 104.297 248.862 104.369 248.853H132.501Z" fill="white"/>
<path d="M91.0015 248.239V249.423L96.5791 251.568H132.156C132.419 251.568 132.672 251.411 132.858 251.132C133.044 250.854 133.149 250.475 133.149 250.081V248.239H91.0015Z" fill="#263238"/>
<path opacity="0.2" d="M120.769 248.239V249.423L126.352 251.568H96.5791L91.0015 249.423V248.239H120.769Z" fill="white"/>
<g opacity="0.2">
<path opacity="0.2" d="M137.728 227.146H109.263L110.369 222.5H138.834L137.728 227.146Z" fill="#92E3A9"/>
</g>
<g opacity="0.1">
<path opacity="0.1" d="M136.301 233.127H107.836C107.752 233.127 107.711 233.029 107.741 232.895C107.757 232.833 107.784 232.778 107.82 232.737C107.856 232.696 107.898 232.671 107.943 232.664H136.414C136.491 232.664 136.533 232.771 136.503 232.895C136.489 232.96 136.462 233.017 136.426 233.058C136.39 233.099 136.346 233.123 136.301 233.127V233.127Z" fill="black"/>
</g>
<g opacity="0.1">
<path opacity="0.1" d="M134.743 239.65H106.278C106.195 239.65 106.153 239.543 106.183 239.419C106.199 239.355 106.228 239.299 106.264 239.258C106.301 239.217 106.345 239.193 106.391 239.188H134.856C134.939 239.188 134.981 239.285 134.951 239.419C134.934 239.483 134.906 239.538 134.869 239.579C134.832 239.62 134.789 239.645 134.743 239.65V239.65Z" fill="black"/>
</g>
<g opacity="0.1">
<path opacity="0.1" d="M133.191 246.174H104.726C104.642 246.174 104.601 246.067 104.63 245.943C104.644 245.877 104.671 245.819 104.707 245.777C104.743 245.734 104.787 245.708 104.833 245.702H133.298C133.381 245.702 133.422 245.809 133.393 245.943C133.377 246.006 133.35 246.061 133.314 246.102C133.278 246.143 133.235 246.168 133.191 246.174Z" fill="black"/>
</g>
<path d="M123.724 372.883H126.822L132.394 256.792H128.279L123.724 372.883Z" fill="#263238"/>
<path opacity="0.2" d="M123.718 372.883H126.822L132.12 262.559L132.394 256.979H128.279L128.059 262.559L123.718 372.883Z" fill="white"/>
<path opacity="0.2" d="M128.059 262.283H132.12L132.394 256.979H128.279L128.059 262.283Z" fill="black"/>
<path d="M100.968 372.883H104.066L104.571 256.792H100.462L100.968 372.883Z" fill="#263238"/>
<path opacity="0.3" d="M100.456 256.979L100.54 275.704L100.962 372.883H104.066L104.494 275.704L104.571 256.979H100.456Z" fill="white"/>
<path opacity="0.2" d="M100.456 256.979L100.54 275.918H104.494L104.571 256.979H100.456Z" fill="black"/>
<path d="M68.0488 372.883H71.1469L76.7186 256.792H72.6037L68.0488 372.883Z" fill="#263238"/>
<path opacity="0.3" d="M68.0488 372.883H71.1469L76.451 262.559L76.7186 256.979H72.6037L72.3837 262.559L68.0488 372.883Z" fill="white"/>
<path opacity="0.2" d="M72.3835 262.283H76.4508L76.7184 256.979H72.6036L72.3835 262.283Z" fill="black"/>
<path d="M159.194 372.883H162.292L157.737 256.792H153.622L159.194 372.883Z" fill="#263238"/>
<path opacity="0.3" d="M153.622 256.979L153.896 262.559L159.194 372.883H162.292L157.957 262.559L157.737 256.979H153.622Z" fill="white"/>
<path opacity="0.2" d="M157.737 256.979H153.622L153.896 262.283H157.957L157.737 256.979Z" fill="black"/>
<path d="M159.711 259.702H70.6235C70.4548 259.702 70.2878 259.652 70.132 259.556C69.9762 259.459 69.8346 259.318 69.7153 259.139C69.596 258.961 69.5014 258.749 69.4369 258.515C69.3723 258.282 69.3391 258.032 69.3391 257.78V253.89L161.008 253.89V257.78C161.008 258.034 160.974 258.285 160.909 258.519C160.843 258.754 160.748 258.967 160.627 259.145C160.507 259.324 160.364 259.465 160.206 259.561C160.049 259.656 159.881 259.704 159.711 259.702V259.702Z" fill="#92E3A9"/>
<path opacity="0.2" d="M69.3452 256.792H160.996V253.881L69.3452 253.881V256.792Z" fill="black"/>
<path d="M67.4244 254.638H162.916C163.207 254.638 163.485 254.466 163.69 254.158C163.895 253.851 164.011 253.435 164.011 253C164.011 252.566 163.895 252.15 163.69 251.842C163.485 251.535 163.207 251.363 162.916 251.363H67.4244C67.1343 251.363 66.856 251.535 66.6508 251.842C66.4456 252.15 66.3303 252.566 66.3303 253C66.3303 253.435 66.4456 253.851 66.6508 254.158C66.856 254.466 67.1343 254.638 67.4244 254.638Z" fill="#92E3A9"/>
<path d="M159.866 247.242C159.908 248.655 159.735 250.064 159.36 251.363H137.603V250.589H138.043V243.86H137.603V243.086H159.36C159.733 244.398 159.905 245.818 159.866 247.242V247.242Z" fill="#263238"/>
<path opacity="0.2" d="M159.866 247.242C159.908 248.655 159.735 250.064 159.36 251.363H137.603V250.589H138.043V243.86H137.603V243.086H159.36C159.733 244.398 159.905 245.818 159.866 247.242V247.242Z" fill="white"/>
<path opacity="0.2" d="M148.223 247.242C148.265 248.655 148.092 250.064 147.718 251.363H137.609V250.589H138.049V243.86H137.609V243.086H147.718C148.09 244.398 148.263 245.818 148.223 247.242V247.242Z" fill="black"/>
<path opacity="0.8" d="M147.153 247.242C147.187 248.39 147.047 249.534 146.742 250.589H138.043V243.86H146.742C147.044 244.928 147.185 246.083 147.153 247.242V247.242Z" fill="white"/>
<path opacity="0.6" d="M156.322 247.242C156.364 248.655 156.191 250.064 155.817 251.363H151.767C152.142 250.064 152.314 248.655 152.273 247.242C152.309 245.826 152.137 244.416 151.767 243.112H155.817C156.186 244.416 156.359 245.826 156.322 247.242V247.242Z" fill="white"/>
<path d="M161.805 238.992C161.846 240.405 161.674 241.814 161.299 243.113H139.542V242.338H139.982V235.637H139.542V234.862H161.299C161.668 236.167 161.84 237.577 161.805 238.992Z" fill="#92E3A9"/>
<path opacity="0.2" d="M150.162 238.992C150.203 240.405 150.031 241.814 149.656 243.113H139.547V242.338H139.987V235.637H139.547V234.862H149.656C150.025 236.167 150.197 237.577 150.162 238.992Z" fill="black"/>
<path opacity="0.8" d="M149.091 238.992C149.126 240.14 148.985 241.284 148.681 242.338H139.981V235.637H148.681C148.98 236.697 149.12 237.842 149.091 238.992V238.992Z" fill="white"/>
<path opacity="0.2" d="M158.26 238.992C158.302 240.405 158.129 241.814 157.755 243.113H153.706C154.08 241.814 154.253 240.405 154.211 238.992C154.247 237.577 154.074 236.167 153.706 234.862H157.755C158.124 236.167 158.296 237.577 158.26 238.992Z" fill="black"/>
<path d="M88.8072 353.036L86.8925 366.297L82.3555 366.182L84.2523 353.036H88.8072Z" fill="#EBB376"/>
<path opacity="0.2" d="M88.8133 353.036L87.8619 359.596L83.3665 359.142L84.2525 353.036H88.8133Z" fill="black"/>
<path d="M87.5764 365.959H87.6716C87.6716 365.959 87.7727 366.013 87.7846 366.03C87.7964 366.048 87.7846 366.03 87.7846 366.03C87.7901 366.034 87.7962 366.036 87.8024 366.036C87.8086 366.036 87.8147 366.034 87.8202 366.03C88.2064 366.216 88.6053 366.336 89.0095 366.386C89.3084 366.468 89.6169 366.376 89.8717 366.128C89.9554 366.022 90.016 365.88 90.0457 365.721C90.0753 365.563 90.0727 365.395 90.0382 365.238C90.0299 365.137 90.0049 365.039 89.9654 364.956C89.926 364.872 89.8734 364.804 89.8122 364.758C89.3778 364.65 88.932 364.773 88.5516 365.105C88.8208 364.687 88.9793 364.136 88.9976 363.556C88.9809 363.419 88.9346 363.295 88.8658 363.201C88.797 363.108 88.7096 363.051 88.617 363.04C88.5291 363.016 88.4389 363.02 88.352 363.051C88.2651 363.081 88.1833 363.138 88.1116 363.218C87.6359 363.832 87.5586 365.754 87.5586 365.888L87.5764 365.959ZM88.064 365.568L87.9748 365.648C87.9462 364.913 88.08 364.184 88.3554 363.574C88.3861 363.53 88.4226 363.496 88.4625 363.475C88.5025 363.453 88.545 363.445 88.5873 363.449H88.6408C88.7895 363.449 88.8251 363.601 88.8251 363.699C88.7278 364.437 88.458 365.1 88.064 365.568V365.568ZM88.1294 365.906C88.6765 365.452 89.4555 364.962 89.7468 365.158C89.7762 365.18 89.8014 365.213 89.8201 365.253C89.8388 365.294 89.8504 365.341 89.8538 365.39C89.8703 365.488 89.8697 365.591 89.852 365.69C89.8343 365.788 89.8001 365.877 89.7528 365.95C89.5506 366.235 88.956 366.217 88.1294 365.906Z" fill="#92E3A9"/>
<path d="M87.4694 365.131L82.3853 364.66C82.3431 364.652 82.3003 364.657 82.2595 364.675C82.2186 364.692 82.1805 364.722 82.1473 364.762C82.1141 364.801 82.0865 364.85 82.0661 364.906C82.0457 364.962 82.033 365.023 82.0285 365.087V365.087L81.529 371.094C81.5175 371.41 81.5888 371.719 81.7277 371.957C81.8665 372.195 82.062 372.342 82.2723 372.367C84.0562 372.483 84.9006 372.411 87.1364 372.589C89.1229 372.906 91.1219 373.013 93.1184 372.91C95.0153 372.634 94.7834 369.83 93.9628 369.697C92.0243 369.368 89.4555 367.232 88.2365 365.612C88.0232 365.329 87.7535 365.16 87.4694 365.131V365.131Z" fill="#263238"/>
<path d="M115.369 353.036L113.455 366.297L108.912 366.182L110.814 353.036H115.369Z" fill="#EBB376"/>
<path opacity="0.2" d="M115.369 353.036L114.418 359.596L109.923 359.142L110.809 353.036H115.369Z" fill="black"/>
<path d="M114.132 365.959H114.228C114.228 365.959 114.329 366.012 114.347 366.03C114.364 366.048 114.347 366.03 114.347 366.03C114.352 366.034 114.358 366.036 114.364 366.036C114.371 366.036 114.377 366.034 114.382 366.03C114.769 366.215 115.167 366.334 115.571 366.386C115.872 366.47 116.183 366.378 116.44 366.128C116.522 366.02 116.582 365.878 116.61 365.72C116.639 365.561 116.635 365.393 116.6 365.238C116.593 365.135 116.569 365.037 116.53 364.953C116.49 364.869 116.436 364.801 116.374 364.757C115.94 364.65 115.494 364.773 115.114 365.104C115.382 364.685 115.542 364.136 115.566 363.556C115.547 363.419 115.499 363.295 115.429 363.202C115.36 363.109 115.272 363.052 115.179 363.04C115.091 363.017 115.001 363.021 114.914 363.051C114.827 363.082 114.745 363.138 114.674 363.218C114.198 363.832 114.121 365.754 114.121 365.888L114.132 365.959ZM114.62 365.567L114.531 365.647C114.505 364.913 114.639 364.186 114.911 363.574C114.942 363.53 114.979 363.497 115.019 363.475C115.059 363.454 115.101 363.445 115.143 363.449H115.197C115.346 363.449 115.381 363.6 115.387 363.698C115.284 364.436 115.013 365.097 114.62 365.567ZM114.686 365.905C115.233 365.452 116.012 364.962 116.303 365.158C116.332 365.18 116.357 365.213 116.376 365.253C116.395 365.294 116.406 365.34 116.41 365.389C116.427 365.487 116.427 365.59 116.411 365.688C116.394 365.786 116.361 365.876 116.315 365.95C116.083 366.235 115.488 366.217 114.686 365.905Z" fill="#92E3A9"/>
<path d="M114.026 365.131L108.941 364.66C108.899 364.652 108.856 364.657 108.816 364.675C108.775 364.692 108.737 364.722 108.703 364.762C108.67 364.801 108.643 364.85 108.622 364.906C108.602 364.962 108.589 365.023 108.585 365.087V365.087L108.085 371.094C108.074 371.41 108.145 371.719 108.284 371.957C108.423 372.195 108.618 372.342 108.828 372.367C110.612 372.483 111.457 372.411 113.693 372.589C115.678 372.896 117.674 372.994 119.669 372.883C121.565 372.607 121.334 369.804 120.519 369.67C118.574 369.341 116.006 367.205 114.793 365.585C114.577 365.312 114.308 365.153 114.026 365.131V365.131Z" fill="#263238"/>
<path d="M96.9478 327.796C95.2198 337.771 93.0099 347.545 90.3355 357.041L82.0464 356.098C82.0464 356.098 85.4477 336.215 86.6786 318.006C87.4397 306.765 87.3743 297.465 85.1741 296.744C83.7886 296.281 80.5538 296.299 76.4033 296.441V273.301C88.0462 276.861 99.6296 283.625 100.51 289.036C101.741 296.664 99.588 312.791 96.9478 327.796Z" fill="#92E3A9"/>
<path opacity="0.4" d="M96.9478 327.796C95.2198 337.771 93.0099 347.545 90.3355 357.041L82.0464 356.098C82.0464 356.098 85.4477 336.215 86.6786 318.006C87.4397 306.765 87.3743 297.465 85.1741 296.744C83.7886 296.281 80.5538 296.299 76.4033 296.441V273.301C88.0462 276.861 99.6296 283.625 100.51 289.036C101.741 296.664 99.588 312.791 96.9478 327.796Z" fill="white"/>
<path opacity="0.2" d="M96.9478 327.796C93.8558 324.859 90.2345 321.415 86.6786 318.006C87.4397 306.765 87.3743 297.465 85.1741 296.744C83.7886 296.281 80.5538 296.299 76.4033 296.441V273.301C88.0462 276.861 99.6296 283.625 100.51 289.036C101.741 296.664 99.588 312.791 96.9478 327.796Z" fill="black"/>
<path d="M92.4167 271.032L93.1481 262.247L69.4223 256.4C69.4223 256.4 61.6623 279.46 65.462 290.692C68.9406 301.033 106.022 294.875 111.73 296.735C117.439 298.595 108.579 356.089 108.579 356.089L116.904 357.041C116.904 357.041 129.712 305.314 127.078 289.045C125.918 281.952 106.367 272.553 92.4167 271.032Z" fill="#92E3A9"/>
<path opacity="0.6" d="M92.4167 271.032L93.1481 262.247L69.4223 256.4C69.4223 256.4 61.6623 279.46 65.462 290.692C68.9406 301.033 106.022 294.875 111.73 296.735C117.439 298.595 108.579 356.089 108.579 356.089L116.904 357.041C116.904 357.041 129.712 305.314 127.078 289.045C125.918 281.952 106.367 272.553 92.4167 271.032Z" fill="white"/>
<path d="M105.469 199.573C105.267 200.099 105.29 200.695 105.522 200.891C105.754 201.086 106.117 200.819 106.301 200.285C106.486 199.751 106.48 199.173 106.254 198.968C106.028 198.764 105.689 199.066 105.469 199.573Z" fill="#263238"/>
<path d="M105.094 196.734C105.045 196.699 105.004 196.643 104.975 196.574C104.953 196.486 104.953 196.389 104.976 196.302C104.999 196.214 105.044 196.143 105.1 196.102C105.446 195.866 105.825 195.757 106.204 195.785C106.584 195.813 106.954 195.977 107.282 196.263C107.334 196.312 107.372 196.39 107.386 196.48C107.4 196.569 107.391 196.664 107.36 196.743V196.743C107.324 196.821 107.269 196.875 107.207 196.893C107.144 196.911 107.08 196.893 107.027 196.841C106.766 196.622 106.474 196.499 106.175 196.482C105.877 196.465 105.579 196.554 105.308 196.743C105.275 196.767 105.238 196.778 105.201 196.777C105.163 196.775 105.127 196.761 105.094 196.734V196.734Z" fill="#263238"/>
<path d="M105.802 198.897C105.607 200.876 105.593 202.885 105.76 204.869C105.419 204.917 105.075 204.855 104.752 204.686C104.429 204.517 104.134 204.245 103.887 203.89L105.802 198.897Z" fill="#DE5753"/>
<path d="M103.673 206.337C103.53 206.596 103.388 206.845 103.233 207.076C102.366 208.438 101.241 209.369 100.01 209.746C99.6984 209.843 99.3824 209.906 99.0646 209.933C98.2298 210.016 97.393 209.82 96.6154 209.358C95.8377 208.896 95.1386 208.18 94.5692 207.263C94.0582 206.427 93.664 205.447 93.4096 204.379C92.3036 199.929 93.4096 196.369 95.0211 190.22C95.3766 188.766 95.9747 187.473 96.7586 186.463C97.5425 185.453 98.486 184.761 99.4993 184.451C100.513 184.141 101.562 184.225 102.548 184.694C103.533 185.164 104.422 186.002 105.13 187.131C108.353 192.169 106.2 201.505 103.673 206.337Z" fill="#E4897B"/>
<path opacity="0.2" d="M100.01 209.728C99.6986 209.825 99.3826 209.888 99.0647 209.915C98.2299 209.999 97.3932 209.802 96.6155 209.34C95.8379 208.878 95.1388 208.163 94.5693 207.245C94.9694 206.643 95.419 206.12 95.9073 205.688C97.5044 206.421 98.928 207.823 100.01 209.728V209.728Z" fill="black"/>
<path d="M86.613 209.96C87.0174 214.321 93.3799 215.949 93.3799 215.949C93.3799 215.949 96.5196 218.085 96.6504 216.225C95.3482 213.974 95.2055 212.007 95.6574 210.289C95.9556 209.248 96.3903 208.307 96.9358 207.521C97.2293 207.069 97.539 206.641 97.8635 206.239L95.919 194.313C94.5216 198.844 89.7408 209.319 86.613 209.96Z" fill="#E4897B"/>
<path d="M104.767 183.714C104.767 183.714 106.129 183.456 107.146 187.274C108.026 190.469 105.957 191.163 106.046 194.563C106.135 197.963 104.066 199.841 104.066 199.841C104.066 199.841 102.317 202.092 100.837 200.873C100.837 200.873 98.8982 202.297 98.3868 204.78C97.8755 207.263 94.8726 202.778 92.167 203.463C92.167 203.463 90.3415 200.9 90.4723 194.687C90.5767 191.99 91.0184 189.345 91.7745 186.891C92.1337 185.592 92.6619 184.413 93.3286 183.423C93.9953 182.433 94.7869 181.651 95.6575 181.124C98.7734 179.041 104.19 180.608 104.767 183.714Z" fill="#263238"/>
<path d="M100.486 199.022C100.394 199.637 100.394 200.276 100.487 200.891C100.579 201.507 100.762 202.084 101.021 202.582C101.681 203.658 102.739 202.288 103.174 200.401C103.542 198.719 103.673 196.085 102.704 195.791C101.734 195.497 100.694 197.206 100.486 199.022Z" fill="#E4897B"/>
<path d="M95.9191 211.553C94.1675 209.236 92.0052 207.727 89.6933 207.21C88.6831 207.023 87.6605 207.35 86.7892 208.138C85.918 208.925 85.2487 210.128 84.8887 211.553L95.5564 214.784L95.9191 211.553Z" fill="#92E3A9"/>
<path d="M94.1055 245.248L98.4522 246.218C99.4412 245.757 100.456 245.432 101.485 245.248C102.603 245.107 103.727 245.107 104.845 245.248C104.845 245.248 106.795 246.352 106.795 249.2C106.795 249.2 102.204 251.042 100.444 249.939L94.1055 249.2V245.248Z" fill="#E4897B"/>
<path opacity="0.2" d="M94.1055 245.248L98.4522 246.218C99.4412 245.757 100.456 245.432 101.485 245.248C102.603 245.107 103.727 245.107 104.845 245.248C104.845 245.248 106.795 246.352 106.795 249.2C106.795 249.2 102.204 251.042 100.444 249.939L94.1055 249.2V245.248Z" fill="black"/>
<path d="M101.17 213.6C100.286 217.302 99.4928 220.862 98.7912 224.28C98.3392 226.398 97.929 228.472 97.5543 230.51C97.2332 232.192 96.9597 233.821 96.6683 235.405C96.5375 236.161 96.4067 236.918 96.2818 237.665C95.598 241.759 95.045 245.506 94.6109 248.799C93.8879 253.983 93.352 259.22 93.0054 264.49L68.6255 259.924C69.4699 253.65 70.1299 248.176 71.0516 242.267C71.557 239.027 72.1398 235.663 72.8831 231.969C73.4063 229.299 74.0129 226.496 74.7383 223.434C77.1822 212.923 79.4418 210.013 79.4418 210.013C88.8014 207.708 101.17 213.6 101.17 213.6Z" fill="#92E3A9"/>
<path d="M109.281 245.925L113.627 246.904C114.616 246.437 115.631 246.109 116.66 245.925C117.778 245.788 118.902 245.788 120.02 245.925C120.02 245.925 121.988 247.028 121.988 249.85C121.988 249.85 117.397 251.692 115.631 250.588L109.281 249.85V245.925Z" fill="#E4897B"/>
<path d="M81.1663 356.676L91.0371 357.655L92.4881 351.274L81.6122 350.509L81.1663 356.676Z" fill="#92E3A9"/>
<path opacity="0.2" d="M81.1663 356.676L91.0371 357.655L92.4881 351.274L81.6122 350.509L81.1663 356.676Z" fill="white"/>
<path d="M107.722 356.676L117.593 357.655L119.044 351.274L108.168 350.509L107.722 356.676Z" fill="#92E3A9"/>
<path opacity="0.2" d="M107.722 356.676L117.593 357.655L119.044 351.274L108.168 350.509L107.722 356.676Z" fill="white"/>
<path d="M68.5483 260.396L79.543 262.559L79.8998 260.129L68.8873 257.735L68.5483 260.396Z" fill="black"/>
<path d="M80.8155 260.147L80.6787 262.559L90.841 264.65V262.265L80.8155 260.147Z" fill="black"/>
<path d="M91.4712 262.399V264.65L92.9459 264.944V262.764L91.4712 262.399Z" fill="black"/>
<path opacity="0.2" d="M98.7852 224.28C98.3333 226.398 97.923 228.472 97.5484 230.51C97.2273 232.192 96.9537 233.821 96.6624 235.405C95.9012 229.175 97.257 221.726 97.257 221.726L98.7852 224.28Z" fill="black"/>
<path d="M100.432 215.7C102.418 216.296 103.447 236.944 103.887 239.677C104.274 242.062 113.627 246.904 113.627 246.904V250.259C113.627 250.259 103.281 249.2 100.849 247.705C98.4165 246.209 96.9478 225.819 96.9478 225.819L100.432 215.7Z" fill="#E4897B"/>
<g opacity="0.2">
<path opacity="0.2" d="M101.17 213.6C100.286 217.302 99.4928 220.862 98.7912 224.28C98.3392 226.398 97.929 228.472 97.5543 230.51C97.2332 232.192 96.9597 233.821 96.6683 235.405C96.5375 236.161 96.4067 236.918 96.2818 237.665C95.598 241.759 95.045 245.506 94.6109 248.799C93.8879 253.983 93.352 259.22 93.0054 264.49L68.6255 259.924C69.4699 253.65 70.1299 248.176 71.0516 242.267C71.557 239.027 72.1398 235.663 72.8831 231.969C73.4063 229.299 74.0129 226.496 74.7383 223.434C77.1822 212.923 79.4418 210.013 79.4418 210.013C88.8014 207.708 101.17 213.6 101.17 213.6Z" fill="white"/>
</g>
<path d="M101.17 213.6C102.989 214.49 103.887 232.29 103.887 232.29L97.2807 233.598L95.9131 226.282C95.9131 226.282 96.4602 222.829 97.2451 219.207C98.3868 213.956 101.17 213.6 101.17 213.6Z" fill="#92E3A9"/>
<path d="M58.5524 369.848C58.5524 369.228 58.4295 368.622 58.1993 368.107C57.969 367.592 57.6418 367.19 57.2589 366.953C56.8761 366.716 56.455 366.655 56.0488 366.776C55.6426 366.898 55.2697 367.197 54.9772 367.636C54.6847 368.075 54.4858 368.634 54.4057 369.243C54.3256 369.851 54.3679 370.481 54.5273 371.053C54.6866 371.626 54.9558 372.114 55.3008 372.458C55.6458 372.801 56.051 372.983 56.4653 372.981C56.7399 372.981 57.0118 372.9 57.2654 372.743C57.519 372.585 57.7493 372.354 57.9432 372.063C58.1371 371.772 58.2907 371.427 58.3953 371.047C58.4998 370.667 58.5532 370.259 58.5524 369.848V369.848Z" fill="#263238"/>
<path opacity="0.2" d="M58.5524 369.848C58.5524 369.228 58.4295 368.622 58.1993 368.107C57.969 367.592 57.6418 367.19 57.2589 366.953C56.8761 366.716 56.455 366.655 56.0488 366.776C55.6426 366.898 55.2697 367.197 54.9772 367.636C54.6847 368.075 54.4858 368.634 54.4057 369.243C54.3256 369.851 54.3679 370.481 54.5273 371.053C54.6866 371.626 54.9558 372.114 55.3008 372.458C55.6458 372.801 56.051 372.983 56.4653 372.981C56.7399 372.981 57.0118 372.9 57.2654 372.743C57.519 372.585 57.7493 372.354 57.9432 372.063C58.1371 371.772 58.2907 371.427 58.3953 371.047C58.4998 370.667 58.5532 370.259 58.5524 369.848V369.848Z" fill="white"/>
<path d="M108.864 369.848C108.864 369.229 108.742 368.623 108.512 368.108C108.282 367.593 107.955 367.191 107.572 366.954C107.19 366.717 106.769 366.655 106.363 366.776C105.957 366.897 105.584 367.195 105.291 367.633C104.999 368.071 104.799 368.63 104.718 369.237C104.638 369.845 104.679 370.475 104.838 371.047C104.996 371.62 105.264 372.109 105.608 372.453C105.953 372.798 106.357 372.981 106.771 372.981C107.046 372.982 107.319 372.902 107.573 372.745C107.828 372.588 108.059 372.357 108.253 372.066C108.448 371.775 108.602 371.429 108.707 371.049C108.812 370.668 108.865 370.26 108.864 369.848V369.848Z" fill="#263238"/>
<path opacity="0.2" d="M108.864 369.848C108.864 369.229 108.742 368.623 108.512 368.108C108.282 367.593 107.955 367.191 107.572 366.954C107.19 366.717 106.769 366.655 106.363 366.776C105.957 366.897 105.584 367.195 105.291 367.633C104.999 368.071 104.799 368.63 104.718 369.237C104.638 369.845 104.679 370.475 104.838 371.047C104.996 371.62 105.264 372.109 105.608 372.453C105.953 372.798 106.357 372.981 106.771 372.981C107.046 372.982 107.319 372.902 107.573 372.745C107.828 372.588 108.059 372.357 108.253 372.066C108.448 371.775 108.602 371.429 108.707 371.049C108.812 370.668 108.865 370.26 108.864 369.848V369.848Z" fill="white"/>
<path opacity="0.2" d="M57.506 369.848C57.506 369.538 57.4444 369.235 57.3292 368.977C57.2139 368.719 57.0501 368.519 56.8585 368.4C56.6669 368.282 56.4562 368.252 56.253 368.313C56.0499 368.374 55.8634 368.524 55.7173 368.744C55.5711 368.964 55.4719 369.244 55.4322 369.548C55.3925 369.853 55.4141 370.168 55.4942 370.454C55.5744 370.74 55.7094 370.984 55.8823 371.155C56.0552 371.326 56.2581 371.417 56.4654 371.415C56.6025 371.415 56.7383 371.374 56.865 371.295C56.9916 371.217 57.1066 371.101 57.2033 370.956C57.3 370.81 57.3765 370.637 57.4285 370.447C57.4804 370.257 57.5068 370.054 57.506 369.848V369.848Z" fill="white"/>
<path opacity="0.2" d="M106.771 371.415C107.349 371.415 107.818 370.713 107.818 369.848C107.818 368.983 107.349 368.282 106.771 368.282C106.193 368.282 105.725 368.983 105.725 369.848C105.725 370.713 106.193 371.415 106.771 371.415Z" fill="white"/>
<path d="M83.3487 356.125V322.474H79.8879V356.125C66.4254 356.641 58.2433 363.69 56.6021 365.229C56.5086 365.319 56.4317 365.443 56.3787 365.589C56.3257 365.736 56.2982 365.899 56.2988 366.066V368.86C56.2988 369.122 56.3684 369.374 56.4922 369.559C56.6159 369.744 56.7838 369.848 56.9589 369.848V369.848C57.0789 369.854 57.1977 369.811 57.3025 369.723C57.4073 369.635 57.4941 369.506 57.5535 369.35L58.3503 367.25C65.3255 363.921 72.586 362.123 79.9057 361.91V367.445C79.9073 367.784 79.9982 368.107 80.1586 368.346C80.319 368.584 80.5359 368.718 80.762 368.718H82.5102C82.7363 368.718 82.9532 368.584 83.1136 368.346C83.274 368.107 83.3649 367.784 83.3665 367.445V361.91C90.6862 362.123 97.9467 363.921 104.922 367.25L105.719 369.35C105.778 369.506 105.865 369.635 105.97 369.723C106.075 369.811 106.193 369.854 106.313 369.848V369.848C106.488 369.848 106.656 369.744 106.78 369.559C106.904 369.374 106.973 369.122 106.973 368.86V366.066C106.974 365.899 106.947 365.736 106.894 365.589C106.84 365.443 106.764 365.319 106.67 365.229C105.011 363.69 96.8111 356.641 83.3487 356.125Z" fill="#263238"/>
<path opacity="0.2" d="M83.3487 356.125V322.474H79.8879V356.125C66.4254 356.641 58.2433 363.69 56.6021 365.229C56.5086 365.319 56.4317 365.443 56.3787 365.589C56.3257 365.736 56.2982 365.899 56.2988 366.066V368.86C56.2988 369.122 56.3684 369.374 56.4922 369.559C56.6159 369.744 56.7838 369.848 56.9589 369.848V369.848C57.0789 369.854 57.1977 369.811 57.3025 369.723C57.4073 369.635 57.4941 369.506 57.5535 369.35L58.3503 367.25C65.3255 363.921 72.586 362.123 79.9057 361.91V367.445C79.9073 367.784 79.9982 368.107 80.1586 368.346C80.319 368.584 80.5359 368.718 80.762 368.718H82.5102C82.7363 368.718 82.9532 368.584 83.1136 368.346C83.274 368.107 83.3649 367.784 83.3665 367.445V361.91C90.6862 362.123 97.9467 363.921 104.922 367.25L105.719 369.35C105.778 369.506 105.865 369.635 105.97 369.723C106.075 369.811 106.193 369.854 106.313 369.848V369.848C106.488 369.848 106.656 369.744 106.78 369.559C106.904 369.374 106.973 369.122 106.973 368.86V366.066C106.974 365.899 106.947 365.736 106.894 365.589C106.84 365.443 106.764 365.319 106.67 365.229C105.011 363.69 96.8111 356.641 83.3487 356.125Z" fill="black"/>
<path d="M82.2963 366.724H80.9405C80.6877 366.724 80.4827 367.031 80.4827 367.41V372.296C80.4827 372.674 80.6877 372.981 80.9405 372.981H82.2963C82.5492 372.981 82.7542 372.674 82.7542 372.296V367.41C82.7542 367.031 82.5492 366.724 82.2963 366.724Z" fill="#263238"/>
<path opacity="0.2" d="M82.2963 366.724H80.9405C80.6877 366.724 80.4827 367.031 80.4827 367.41V372.296C80.4827 372.674 80.6877 372.981 80.9405 372.981H82.2963C82.5492 372.981 82.7542 372.674 82.7542 372.296V367.41C82.7542 367.031 82.5492 366.724 82.2963 366.724Z" fill="white"/>
<path d="M58.9568 289.348H104.286C105.533 289.348 106.729 290.09 107.611 291.41C108.494 292.73 108.989 294.521 108.989 296.388V300.642H54.2473V296.37C54.2505 294.504 54.7482 292.717 55.6313 291.4C56.5143 290.084 57.7104 289.346 58.9568 289.348V289.348Z" fill="#92E3A9"/>
<path d="M73.769 261.384H103.905C104.274 261.366 104.641 261.478 104.977 261.709C105.312 261.941 105.607 262.287 105.838 262.718C106.069 263.15 106.229 263.657 106.307 264.198C106.384 264.738 106.376 265.299 106.284 265.834L100.849 300.651H99.6058L104.196 270.106C104.276 269.575 104.275 269.024 104.192 268.494C104.109 267.964 103.948 267.469 103.719 267.046C103.49 266.622 103.2 266.282 102.871 266.051C102.541 265.82 102.181 265.703 101.818 265.71H74.3875L73.769 261.384Z" fill="#263238"/>
<path d="M85.1742 301.87V331.311C85.1726 331.764 85.0519 332.197 84.8381 332.517C84.6243 332.837 84.3348 333.018 84.0325 333.02H79.2101C79.0599 333.021 78.9111 332.978 78.7722 332.892C78.6334 332.807 78.5072 332.681 78.401 332.522C78.2948 332.363 78.2108 332.174 78.1537 331.967C78.0966 331.759 78.0676 331.536 78.0684 331.311V301.87H85.1742Z" fill="#263238"/>
<path opacity="0.2" d="M85.1801 301.87H78.0684V314.099H85.1801V301.87Z" fill="black"/>
<path d="M110.482 298.835V302.395C110.482 302.867 110.356 303.32 110.133 303.654C109.91 303.988 109.608 304.175 109.293 304.175H53.9918C53.6763 304.175 53.3739 303.988 53.1508 303.654C52.9278 303.32 52.8025 302.867 52.8025 302.395V298.835C52.8025 298.363 52.9278 297.91 53.1508 297.577C53.3739 297.243 53.6763 297.055 53.9918 297.055H109.293C109.608 297.055 109.91 297.243 110.133 297.577C110.356 297.91 110.482 298.363 110.482 298.835Z" fill="#263238"/>
<path d="M85.0315 300.651H52.7549C52.7549 300.651 42.5034 275.125 42.5034 232.948V217.453C42.5034 214.385 43.3179 211.442 44.7675 209.272C46.2172 207.102 48.1835 205.883 50.2336 205.883H63.9102C65.9215 205.868 67.8568 207.033 69.3017 209.127C70.7465 211.221 71.586 214.079 71.6404 217.089C71.9912 238.858 74.1319 285.921 85.0315 300.651Z" fill="#263238"/>
<path opacity="0.2" d="M77.9296 300.651H54.2157C53.7659 300.652 53.3246 300.469 52.9397 300.12C52.5549 299.772 52.2414 299.272 52.0334 298.675C49.7024 291.938 42.5193 268.281 42.5193 232.948V217.454C42.5193 214.385 43.3337 211.442 44.7834 209.272C46.2331 207.103 48.1993 205.884 50.2495 205.884H62.0767C64.0854 205.882 66.0155 207.051 67.4584 209.142C68.9013 211.234 69.7436 214.084 69.807 217.089C70.1637 236.5 71.906 276.131 80.0465 294.866C80.3078 295.428 80.4591 296.089 80.4835 296.773C80.5078 297.457 80.4042 298.138 80.1843 298.739C79.9644 299.34 79.6369 299.837 79.2386 300.175C78.8404 300.512 78.387 300.677 77.9296 300.651V300.651Z" fill="white"/>
<path opacity="0.2" d="M110.482 298.835V302.395C110.482 302.867 110.356 303.32 110.133 303.654C109.91 303.988 109.608 304.175 109.293 304.175H84.4964C84.0663 304.173 83.6543 303.916 83.3502 303.461C83.0461 303.006 82.8746 302.389 82.873 301.745V299.494C82.873 298.849 83.0441 298.231 83.3485 297.776C83.6529 297.32 84.0659 297.064 84.4964 297.064H109.287C109.443 297.063 109.598 297.108 109.742 297.196C109.887 297.284 110.018 297.415 110.129 297.579C110.24 297.744 110.329 297.939 110.389 298.155C110.449 298.37 110.481 298.601 110.482 298.835Z" fill="black"/>
</g>
<defs>
<clipPath id="clip0_16:257">
<rect width="310" height="445" fill="white"/>
</clipPath>
</defs>
</svg>
